<svg id="Layer_1" data-name="Layer 1" xmlns="http://www.w3.org/2000/svg" viewBox="0 0 98.47 98.61"><defs><style>.cls-1{fill:#fdbf5b;fill-rule:evenodd;}.cls-2{fill:none;stroke:#fdbf5b;stroke-width:4px;}</style></defs><path class="cls-1" d="M49.89,99.13A49.35,49.35,0,0,0,96.37,33.51L33.6,96.36A49.09,49.09,0,0,0,49.89,99.13ZM10.1,78.87,34.26,54.68,6.37,26.75A49.38,49.38,0,0,0,10.1,78.87ZM26.85,6.24,54.74,34.17,78.9,10a49.23,49.23,0,0,0-52-3.74Z" transform="translate(-0.65 -0.52)"/><path class="cls-2" d="M16.88,16.9,23,23" transform="translate(-0.65 -0.52)"/><path class="cls-2" d="M29.92,79.55l-6.1,6.1" transform="translate(-0.65 -0.52)"/><path class="cls-2" d="M40.78,68l-6.09,6.1" transform="translate(-0.65 -0.52)"/><path class="cls-2" d="M51.64,56.35l-6.09,6.1" transform="translate(-0.65 -0.52)"/><path class="cls-2" d="M73.36,33.15l-6.09,6.1" transform="translate(-0.65 -0.52)"/><path class="cls-2" d="M84.22,21.55l-6.09,6.1" transform="translate(-0.65 -0.52)"/><path class="cls-2" d="M28.17,28.07l6.09,6.1" transform="translate(-0.65 -0.52)"/><path class="cls-2" d="M40.48,40.4l6.09,6.1" transform="translate(-0.65 -0.52)"/><path class="cls-2" d="M62.5,44.75l-6.09,6.1" transform="translate(-0.65 -0.52)"/></svg>